<?xml version="1.0" encoding="UTF-8"?>
<!DOCTYPE svg PUBLIC "-//W3C//DTD SVG 1.1//EN" "http://www.w3.org/Graphics/SVG/1.1/DTD/svg11.dtd">
<!-- Creator: CorelDRAW 2019 (64-Bit) -->
<svg xmlns="http://www.w3.org/2000/svg" xml:space="preserve" width="297mm" height="210mm" version="1.1" style="shape-rendering:geometricPrecision; text-rendering:geometricPrecision; image-rendering:optimizeQuality; fill-rule:evenodd; clip-rule:evenodd"
viewBox="0 0 29700 21000"
 xmlns:xlink="http://www.w3.org/1999/xlink"
 xmlns:xodm="http://www.corel.com/coreldraw/odm/2003">
 <defs>
  <style type="text/css">
   <![CDATA[
    .fil0 {fill:white}
   ]]>
  </style>
 </defs>
 <g id="Layer_x0020_1">
  <metadata id="CorelCorpID_0Corel-Layer"/>
  <g id="_2195863476432">
   <path class="fil0" d="M14970.53 8019.71c-2.2,37.91 20.24,137.14 24.35,188.49 21.86,273.28 -15.05,1359.67 7.26,1506.12l302.96 0c13.41,-74.13 5.85,-1103.77 4.32,-1262.7 -0.92,-94.59 11.95,-101.81 64.72,-145.06 297.48,-243.84 477.33,88.33 421.87,420.95 -51.91,311.36 -240.45,200.87 -331.98,296.47 -27.48,28.69 -59.18,87.85 -70.51,132.34 263.34,76.25 407.49,43.26 565.43,-105.83 273.88,-258.55 223.54,-861.46 -125.98,-1017.77 -163.52,-73.13 -301.95,-52.17 -439.4,48 -70.08,51.08 -94.83,82.26 -95.16,81.69 -1.2,-2.05 -4.65,4.43 -7.28,6.27 -7.23,-64.68 -47.95,-136.02 -94.59,-146.87 -34.45,-8.01 -180.15,-2.1 -226.01,-2.1z"/>
   <path class="fil0" d="M17233.09 7600.74c-147.64,-107.56 -1016.67,-204.91 -918.83,420.24 38.82,248.1 329.02,367.29 522.77,475.92 94.13,52.77 234.1,135.29 228.29,274.4 -2.95,70.46 -56.84,131.33 -99.21,158.24 -184.58,117.21 -470.42,-19.23 -594.45,-52.48l-77.96 202.77c186.08,122.63 597.41,169.26 819.91,61.64 111,-53.69 198.71,-126.76 233.65,-267.12 122.29,-491.12 -464.41,-623.67 -679.67,-804.17 -105.32,-88.3 -85.66,-258.95 46.13,-307.68 141.14,-52.18 311.51,12.4 443.65,33.37l75.72 -195.13z"/>
   <path class="fil0" d="M11713.71 9105.09l-79.19 -204.93c-124.99,28.27 -367.73,156.28 -595.28,-10.86 -74.86,-54.98 -125.39,-104.44 -171.46,-200.77 -40.67,-85.04 -68.53,-201 -70.28,-310.74 -3.64,-228.62 66.21,-391.64 224.38,-529.13 170.81,-148.47 397.63,-92.24 614.04,-47.07l77.77 -199.44c-95.69,-63.95 -344.27,-86.2 -471.83,-77.29 -169.93,11.87 -291.51,57.1 -413.13,130.39 -490.3,295.46 -501.8,1119.54 2.36,1421.01 121.79,72.83 252.02,114.93 421.65,124.29 224.14,12.37 289.83,-38.68 460.97,-95.46z"/>
   <path class="fil0" d="M20015.02 8893.64c-138.61,42.57 -296.71,127.94 -457.39,53.97 -118.15,-54.38 -183.68,-182.96 -188.22,-356.98 -12.51,-479.64 471.62,-502.17 458.76,-125.98 -77.12,5.36 -204.62,-11.99 -261.08,22.18 -36.8,22.28 -102.28,97.71 -107.38,163.49l619.21 -2.09c190.21,-515.97 -325.11,-803.52 -733.33,-584.33 -382.51,205.39 -363.07,780.37 -56.54,1024.49 271.79,216.45 571.11,85.11 799.77,14.66l-73.8 -209.41z"/>
   <path class="fil0" d="M11923.23 8272.1c179.12,-34.8 376.85,-108.03 468.97,61.84 45.64,84.15 35.14,172.51 35.13,277.69 -0.02,161.66 22.87,199.78 -48.98,263.44 -216.26,191.6 -376.25,71.61 -337.64,-80.63 44.87,-176.87 259.24,-6.35 304.81,-317.12 -873.18,48.13 -675.15,722.17 -272.64,727.39 224.29,2.9 285.86,-111.14 372.44,-177.43 36.42,183.69 133.78,151.76 317.9,147.68 -29.96,-196.85 -33.92,-312.74 -33.92,-520.76 0,-287.64 2.9,-617.63 -424.91,-655.48 -190.09,-16.82 -304.01,30.61 -460.62,79.11l79.46 194.27z"/>
   <path class="fil0" d="M18039.15 8241.84l182.23 0c25.03,255.25 -51.45,590.3 79.04,791.91 53.99,83.42 138.48,144.55 272.02,164.71 159.35,24.06 225.27,-25.52 359.48,-51.11l-70.76 -202.22c-373.6,87.1 -341.83,-78.32 -341.83,-450.55 0,-280.44 0,-560.87 -1.11,-844.7l-294.19 96.53 0 258.69c-18.56,64.21 -184.87,7.08 -184.87,95.76l-0.01 140.98z"/>
   <path class="fil0" d="M14028.82 8090.22c48.54,96.14 76.44,165.12 219.25,142.83 157.5,-24.59 153.58,76.28 153.23,208.32 -0.64,244.71 -0.04,489.51 -0.04,734.24l309.91 0c0,-177.84 20.26,-841.74 -18.25,-960.32 -105.86,-325.98 -512.38,-228.21 -664.1,-125.07z"/>
   <path class="fil0" d="M13341.79 8090.22c48.6,94.79 70.6,159.01 213.26,141.51 152.38,-18.69 133.51,91.15 133.28,220.28 -0.42,241.19 -0.02,482.41 -0.02,723.6l312.56 0c0,-189.71 22.85,-815.99 -15.88,-954.8 -32.92,-118.01 -122.22,-218.85 -262.97,-228.33 -97.95,-6.6 -325.89,49.07 -380.23,97.74z"/>
   <polygon class="fil0" points="17570.95,9175.61 17884.84,9175.61 17885.9,8058.16 17879.53,8019.71 17574.43,8019.57 17570.95,8058.3 "/>
   <path class="fil0" d="M13287.93 8547.79c0,-212.19 31.57,-400.35 -90.43,-528.08l-250.09 0c-3.93,43.86 25.45,190.5 27.43,261.83l0.53 894.07 312.56 0c0,-209.28 0,-418.55 0,-627.82z"/>
   <path class="fil0" d="M17687.28 7504.97c-240.27,62.74 -154.63,424.38 93.83,356.63 223.42,-60.92 132.19,-415.65 -93.83,-356.63z"/>
   <path class="fil0" d="M18919.72 8235.23l-0.47 -212.23 -319.49 -3.44c15.86,139.55 146.91,263.18 319.96,215.67z"/>
  </g>
 </g>
</svg>
